<?xml version="1.0" encoding="utf-8"?>
<!-- Svg Vector Icons : http://www.onlinewebfonts.com/icon -->
<!DOCTYPE svg PUBLIC "-//W3C//DTD SVG 1.1//EN" "http://www.w3.org/Graphics/SVG/1.1/DTD/svg11.dtd">
<svg version="1.1" xmlns="http://www.w3.org/2000/svg" xmlns:xlink="http://www.w3.org/1999/xlink" x="0px" y="0px" viewBox="0 0 256 256" enable-background="new 0 0 256 256" xml:space="preserve">
<metadata> Svg Vector Icons : http://www.onlinewebfonts.com/icon </metadata>
<g><g><g><path fill="#21757f" d="M114.1,10.7c-15.1,2.3-30.6,8.9-42.7,18c-5.3,4-15.3,14.4-19.3,20.1c-12.4,17.5-18.4,39-16.9,60.3c2.4,32.5,24.8,71.2,64.5,111.1c8.4,8.4,21.9,20.9,26.5,24.3l1.8,1.3l3.7-3c16-13.1,36.8-34.4,50.6-51.7c39.1-49.1,48.4-90.7,28.9-129.9c-12.9-26-36.6-44.2-65.4-50C138.2,9.9,121.7,9.5,114.1,10.7z M139,39c26.2,4.5,47.2,24.9,52.5,51c2.2,10.9,1.3,24.2-2.5,34.8c-4.2,11.7-12.2,22.5-22.5,30.3c-5,3.8-15.4,8.8-21.5,10.5c-22.3,5.9-45.8-0.2-62.1-16C57.2,124.6,56.4,83.7,81.3,58c9.4-9.8,20.8-16,34.2-18.8C121.6,38,132.5,37.9,139,39z"/><path fill="#21757f" d="M114.6,76.1v13.3H101H87.4v13.3v13.4H101h13.6v13.6v13.6H128h13.4v-13.6v-13.6H155h13.6l-0.1-13.2l-0.2-13.2l-13.5-0.2l-13.5-0.1V76.1V62.7H128h-13.3L114.6,76.1L114.6,76.1z"/></g></g></g>
</svg>